<?xml version="1.0" encoding="utf-8"?>
<!-- Generator: Adobe Illustrator 19.0.0, SVG Export Plug-In . SVG Version: 6.00 Build 0)  -->
<svg version="1.1" id="圖層_1" xmlns="http://www.w3.org/2000/svg" xmlns:xlink="http://www.w3.org/1999/xlink" x="0px" y="0px"
	 viewBox="0 0 1525 317" style="enable-background:new 0 0 1525 317;" xml:space="preserve">
<style type="text/css">
	._x005B_Por_x0020_defecto_x005D_{fill:#FFFFFF;stroke:#1D1D1B;stroke-miterlimit:10;}
	.st0{fill:#9A1E23;}
	.st1{fill:#F5E3C4;}
	.st2{fill:#1C324C;}
	.st3{fill:#EB6020;}
	.st4{fill:#D8E9E7;}
	.st5{fill:url(#XMLID_3_);}
	.st6{fill:#FFFFFF;}
	.st7{fill:url(#XMLID_4_);}
	.st8{clip-path:url(#XMLID_5_);}
	.st9{fill:#293B45;}
	.st10{opacity:0.4;fill:#F5E3C4;}
	.st11{fill:#0E386D;}
	.st12{font-family:'Garamond-Bold';}
	.st13{font-size:240px;}
	.st14{fill:none;stroke:#1D1D1B;stroke-miterlimit:10;}
</style>
<path id="XMLID_50_" class="st0" d="M123,1.6C76.7,1.6,2.4,24.8,2.4,24.8v198.5L123,317.6l120.6-94.3V24.8
	C243.6,24.8,169.4,1.6,123,1.6z"/>
<path id="XMLID_49_" class="st1" d="M122.4,11.5c-41.7,0-108.5,20.9-108.5,20.9v179.1l108.5,85l108.5-85V32.4
	C230.9,32.4,164.1,11.5,122.4,11.5z"/>
<path id="XMLID_48_" class="st2" d="M122.4,19.2c-40.6,0-102.7,18.4-102.7,18.4v170.5l102.7,81.1l102.7-81.1V37.6
	C225.1,37.6,163,19.2,122.4,19.2z"/>
<polygon id="XMLID_47_" class="st3" points="159.2,87.1 161.2,93.3 167.7,93.3 162.5,97.1 164.5,103.3 159.2,99.5 154,103.3 
	156,97.1 150.8,93.3 157.2,93.3 "/>
<polygon id="XMLID_46_" class="st4" points="122.4,247.6 124.4,253.8 130.8,253.8 125.6,257.6 127.6,263.8 122.4,260 117.1,263.8 
	119.1,257.6 113.9,253.8 120.4,253.8 "/>
<g id="XMLID_32_">
	<g id="XMLID_43_">
		<linearGradient id="XMLID_3_" gradientUnits="userSpaceOnUse" x1="119.6982" y1="232.474" x2="119.6982" y2="29.776">
			<stop  offset="0" style="stop-color:#ED7245"/>
			<stop  offset="0.6072" style="stop-color:#F5C92B"/>
			<stop  offset="1" style="stop-color:#F2EB35"/>
		</linearGradient>
		<path id="XMLID_45_" class="st5" d="M179.4,132.7c3.5,9.2-1.8,21.1-1.8,21.1c0.9-20.7-17.6-31.2-8.6-63.8
			c3.7-13.3-4.1-20.7-4.1-20.7c2.2,8.8-3.1,11.4-10.2,23.3c-7.2,11.9-3.5,24.2-3.5,24.2c-12.4-13.2-7-32.1-3.4-43.1s-1.4-18-1.4-18
			c2.2,12.8-16.7,31.2-29.7,9.7c-13-21.6,3.4-35.6,3.4-35.6C99.4,30.2,94.5,56.6,95.8,72c2.2,25.5-10.9,29.5-10.9,29.5
			c2.1-8.9-0.4-17.4-4.5-22.4c-4.1-5-9.7-6.6-9.7-6.6s12.4,15.4-6.1,48.8c-9.8,17.7,1.3,35.6,1.3,35.6c-8.8-6.6-15.8,0-15.8,0
			c11.9,8.4,3.5,29.9,17.6,49.3c8.2,11.3,17.3,17.6,26.6,21.3c-14.7-9.3-24.4-25.7-24.4-44.4c0-29,23.5-52.5,52.5-52.5
			s52.5,23.5,52.5,52.5c0,19.4-10.5,36.3-26.1,45.4c21-7.6,30.9-23.5,34.6-33.8C198.8,151.7,179.4,132.7,179.4,132.7z"/>
		<path id="XMLID_44_" class="st6" d="M174.9,183.2c0-29-23.5-52.5-52.5-52.5s-52.5,23.5-52.5,52.5c0,18.7,9.7,35,24.4,44.4
			c8.1,5.2,17.8,8.2,28.1,8.2c9.6,0,18.7-2.6,26.4-7.1C164.4,219.5,174.9,202.5,174.9,183.2z"/>
	</g>
	<g id="XMLID_40_">
		<linearGradient id="XMLID_4_" gradientUnits="userSpaceOnUse" x1="119.6982" y1="232.474" x2="119.6982" y2="29.776">
			<stop  offset="0" style="stop-color:#ED7245"/>
			<stop  offset="0.6072" style="stop-color:#F5C92B"/>
			<stop  offset="1" style="stop-color:#F2EB35"/>
		</linearGradient>
		<path id="XMLID_42_" class="st7" d="M179.4,132.7c3.5,9.2-1.8,21.1-1.8,21.1c0.9-20.7-17.6-31.2-8.6-63.8
			c3.7-13.3-4.1-20.7-4.1-20.7c2.2,8.8-3.1,11.4-10.2,23.3c-7.2,11.9-3.5,24.2-3.5,24.2c-12.4-13.2-7-32.1-3.4-43.1s-1.4-18-1.4-18
			c2.2,12.8-16.7,31.2-29.7,9.7c-13-21.6,3.4-35.6,3.4-35.6C99.4,30.2,94.5,56.6,95.8,72c2.2,25.5-10.9,29.5-10.9,29.5
			c2.1-8.9-0.4-17.4-4.5-22.4c-4.1-5-9.7-6.6-9.7-6.6s12.4,15.4-6.1,48.8c-9.8,17.7,1.3,35.6,1.3,35.6c-8.8-6.6-15.8,0-15.8,0
			c11.9,8.4,3.5,29.9,17.6,49.3c8.2,11.3,17.3,17.6,26.6,21.3c-14.7-9.3-24.4-25.7-24.4-44.4c0-29,23.5-52.5,52.5-52.5
			s52.5,23.5,52.5,52.5c0,19.4-10.5,36.3-26.1,45.4c21-7.6,30.9-23.5,34.6-33.8C198.8,151.7,179.4,132.7,179.4,132.7z"/>
		<path id="XMLID_41_" class="st6" d="M174.9,183.2c0-29-23.5-52.5-52.5-52.5s-52.5,23.5-52.5,52.5c0,18.7,9.7,35,24.4,44.4
			c8.1,5.2,17.8,8.2,28.1,8.2c9.6,0,18.7-2.6,26.4-7.1C164.4,219.5,174.9,202.5,174.9,183.2z"/>
	</g>
	<g id="XMLID_33_">
		<defs>
			<path id="XMLID_35_" d="M179.4,132.3c3.5,9.2-1.8,21.1-1.8,21.1c0.9-20.7-17.6-31.2-8.6-63.8c3.7-13.3-4.1-20.7-4.1-20.7
				c2.2,8.8-3.1,11.4-10.2,23.3c-7.2,11.9-3.5,24.2-3.5,24.2c-12.4-13.2-7-32.1-3.4-43.1s-1.4-18-1.4-18
				c2.2,12.8-16.7,31.2-29.7,9.7c-13-21.6,3.4-35.6,3.4-35.6c-20.7,0.4-25.6,26.8-24.2,42.2c2.2,25.5-10.9,29.5-10.9,29.5
				c2.1-8.9-0.4-17.4-4.5-22.4c-4.1-5-9.7-6.6-9.7-6.6s12.4,15.4-6.1,48.8c-9.8,17.7,1.3,35.6,1.3,35.6c-8.8-6.6-15.8,0-15.8,0
				c11.9,8.4,3.5,29.9,17.6,49.3c8.2,11.3,17.3,17.6,26.6,21.3c-14.7-9.3-24.4-25.7-24.4-44.4c0-29,23.5-52.5,52.5-52.5
				s52.5,23.5,52.5,52.5c0,19.4-10.5,36.3-26.1,45.4c21-7.6,30.9-23.5,34.6-33.8C198.8,151.3,179.4,132.3,179.4,132.3z"/>
		</defs>
		<clipPath id="XMLID_5_">
			<use xlink:href="#XMLID_35_"  style="overflow:visible;"/>
		</clipPath>
		<g id="XMLID_38_" class="st8">
			<path id="XMLID_39_" class="st9" d="M178.5,148.6c3.5,9.2-1.8,21.1-1.8,21.1c0.9-20.7-17.6-31.2-8.6-63.8
				c3.7-13.3-4.1-20.7-4.1-20.7c2.2,8.8-3.1,11.4-10.2,23.3c-7.2,11.9-3.5,24.2-3.5,24.2c-12.4-13.2-7-32.1-3.4-43.1
				c3.6-11-1.4-18-1.4-18c2.2,12.8-16.7,31.2-29.7,9.7c-13-21.6,3.4-35.6,3.4-35.6c-20.7,0.4-25.6,26.8-24.2,42.2
				c2.2,25.5-10.9,29.5-10.9,29.5c2.1-8.9-0.4-17.4-4.5-22.4c-4.1-5-9.7-6.6-9.7-6.6s12.4,15.4-6.1,48.8
				c-9.8,17.7,1.3,35.6,1.3,35.6c-8.8-6.6-15.8,0-15.8,0c11.9,8.4,3.5,29.9,17.6,49.3c8.2,11.3,17.3,17.6,26.6,21.3
				C78.7,234.1,69,217.7,69,199.1c0-29,23.5-52.5,52.5-52.5s52.5,23.5,52.5,52.5c0,19.4-10.5,36.3-26.1,45.4
				c21-7.6,30.9-23.5,34.6-33.8C197.9,167.5,178.5,148.6,178.5,148.6z"/>
		</g>
		<g id="XMLID_36_" class="st8">
			<path id="XMLID_37_" class="st9" d="M68,175.8c-3.4,8.9,1.7,20.5,1.7,20.5c-0.9-20,17-30.3,8.4-61.8c-3.6-12.9,4-20,4-20
				c-2.1,8.5,3,11.1,9.9,22.6c6.9,11.5,3.3,23.4,3.3,23.4c12-12.8,6.8-31.1,3.3-41.8c-3.5-10.7,1.4-17.5,1.4-17.5
				c-2.1,12.4,16.2,30.3,28.8,9.4c12.6-20.9-3.2-34.5-3.2-34.5c20,0.4,24.8,26,23.5,40.9c-2.1,24.7,10.6,28.5,10.6,28.5
				c-2.1-8.6,0.4-16.8,4.4-21.7c3.9-4.8,9.4-6.4,9.4-6.4s-12,14.9,5.9,47.3c9.5,17.1-1.3,34.5-1.3,34.5c8.5-6.4,15.3,0,15.3,0
				c-11.5,8.1-3.4,29-17,47.7c-7.9,10.9-16.7,17.1-25.8,20.7c14.2-9-67.9-7.8-52.8,1c-20.3-7.3-29.9-22.8-33.5-32.7
				C49.3,194.1,68,175.8,68,175.8z"/>
		</g>
	</g>
</g>
<ellipse id="XMLID_31_" class="st3" cx="121.9" cy="183.2" rx="51.5" ry="51.7"/>
<path id="XMLID_21_" class="st10" d="M168.9,213.4c0.2-0.2,0.3-0.4,0.4-0.6c5.5-8.5,8.6-18.7,8.6-29.6c0-15.6-6.5-29.6-16.9-39.6
	c-0.2-0.2-0.4-0.4-0.6-0.6c-9.7-9-22.7-14.6-37-14.6c-17.4,0-32.9,8.2-42.9,21c-0.2,0.2-0.4,0.4-0.5,0.6c-7,9.2-11.1,20.7-11.1,33.1
	c0,30.2,24.4,54.8,54.5,54.8c1.8,0,3.6-0.1,5.4-0.3c0.1,0,0.2,0,0.3,0c0.1,0,0.3,0,0.4,0c0.3-0.1,0.7-0.1,1-0.2
	C146.6,235.4,160.4,226.3,168.9,213.4z M170.5,198.2c-0.1-1-0.3-2-0.4-3c-0.9-5.4-3.2-13.2-8.7-21c2.2-2,4.2-3.1,6-3.1
	c1.5,0,3,0.7,4.4,2.1c0.7,3.2,1,6.6,1,10C172.8,188.4,172,193.5,170.5,198.2z M169.9,166.2c-0.8-0.2-1.6-0.3-2.4-0.3
	c0,0-0.1,0-0.1,0c-3,0-6.1,1.4-9.1,4.2c-1.7-2-3.8-4.1-6.1-6.1c3.4-5.6,5.9-10.4,7.7-14.2C164.2,154.5,167.6,160,169.9,166.2z
	 M140.9,144.7c-1.1-3-3.2-6.6-6.9-9.9c8.3,1.8,15.8,5.7,22,11.1c-1.8,4.3-4.5,9.3-7.8,14.9c-1.9-1.4-4-2.7-6.3-3.9
	C142.6,153.8,142.6,149.3,140.9,144.7z M122,133.6c0,0,0.1,0,0.1,0.1c8.7,3.2,12.4,8.7,13.9,12.8c1.2,3.2,1.3,6.1,1,8.1
	c-11.5-5-27.2-8-48.4-6.4C97.2,139.5,109,134,122,133.6z M83.8,153.8c22.9-2.5,39.3,0.4,51.1,5.5c-4,5.5-11.5,9.9-31.6,14.5
	c-14.4,3.4-24,7.3-29.1,11.9c0-0.8-0.1-1.7-0.1-2.6C74.2,172.2,77.8,162,83.8,153.8z M75.2,193.4c0.4-2.5,4.2-8.7,29.2-14.6
	c17.4-4,28.9-8.3,35.1-17.3c2.1,1.1,4,2.4,5.8,3.6c-11.8,18.3-30.8,40.5-54.5,55.2C83.1,213.4,77.5,204.1,75.2,193.4z M95.2,223.8
	c24.9-15.9,43.1-38.1,54.2-55.4c2.1,1.8,3.8,3.7,5.4,5.5c-4,5.8-6.1,15.1-8.2,25c-0.7,3.3-1.5,6.7-2.3,9.8
	c-3.8,14.9-8.2,22.1-14.6,23.7c-2,0.3-4.1,0.4-6.1,0.4C113,232.8,103.2,229.4,95.2,223.8z M141.6,229.3c3.6-5.3,5.9-12.4,7.7-19.3
	c0.8-3.2,1.6-6.7,2.3-10c1.8-8.1,3.6-16.4,6.5-21.6c8.2,12.8,8.5,26.6,6.7,32C159.2,218.9,151.1,225.5,141.6,229.3z"/>
<path id="XMLID_11_" class="st11" d="M168.9,213.4c0.2-0.2,0.3-0.4,0.4-0.6c5.5-8.5,8.6-18.7,8.6-29.6c0-15.6-6.5-29.6-16.9-39.6
	c-0.2-0.2-0.4-0.4-0.6-0.6c-9.7-9-22.7-14.6-37-14.6c-17.4,0-32.9,8.2-42.9,21c-0.2,0.2-0.4,0.4-0.5,0.6c-7,9.2-11.1,20.7-11.1,33.1
	c0,30.2,24.4,54.8,54.5,54.8c1.8,0,3.6-0.1,5.4-0.3c0.1,0,1.4-0.1,1.8-0.2C146.6,235.4,160.4,226.3,168.9,213.4z M170.5,198.2
	c-0.1-1-0.3-2-0.4-3c-0.9-5.4-3.2-13.2-8.7-21c2.2-2,4.2-3.1,6-3.1c1.5,0,3,0.7,4.4,2.1c0.7,3.2,1,6.6,1,10
	C172.8,188.4,172,193.5,170.5,198.2z M169.9,166.2c-0.8-0.2-1.6-0.3-2.4-0.3c0,0-0.1,0-0.1,0c-3,0-6.1,1.4-9.1,4.2
	c-1.7-2-3.8-4.1-6.1-6.1c3.4-5.6,5.9-10.4,7.7-14.2C164.2,154.5,167.6,160,169.9,166.2z M140.9,144.7c-1.1-3-3.2-6.6-6.9-9.9
	c8.3,1.8,15.8,5.7,22,11.1c-1.8,4.3-4.5,9.3-7.8,14.9c-1.9-1.4-4-2.7-6.3-3.9C142.6,153.8,142.6,149.3,140.9,144.7z M122,133.6
	c0,0,0.1,0,0.1,0.1c8.7,3.2,12.4,8.7,13.9,12.8c1.2,3.2,1.3,6.1,1,8.1c-11.5-5-27.2-8-48.4-6.4C97.2,139.5,109,134,122,133.6z
	 M83.8,153.8c22.9-2.5,39.3,0.4,51.1,5.5c-4,5.5-11.5,9.9-31.6,14.5c-14.4,3.4-24,7.3-29.1,11.9c0-0.8-0.1-1.7-0.1-2.6
	C74.2,172.2,77.8,162,83.8,153.8z M75.2,193.4c0.4-2.5,4.2-8.7,29.2-14.6c17.4-4,28.9-8.3,35.1-17.3c2.1,1.1,4,2.4,5.8,3.6
	c-11.8,18.3-30.8,40.5-54.5,55.2C83.1,213.4,77.5,204.1,75.2,193.4z M95.2,223.8c24.9-15.9,43.1-38.1,54.2-55.4
	c2.1,1.8,3.8,3.7,5.4,5.5c-4,5.8-6.1,15.1-8.2,25c-0.7,3.3-1.5,6.7-2.3,9.8c-3.8,14.9-8.2,22.1-14.6,23.7c-2,0.3-4.1,0.4-6.1,0.4
	C113,232.8,103.2,229.4,95.2,223.8z M141.6,229.3c3.6-5.3,5.9-12.4,7.7-19.3c0.8-3.2,1.6-6.7,2.3-10c1.8-8.1,3.6-16.4,6.5-21.6
	c8.2,12.8,8.5,26.6,6.7,32C159.2,218.9,151.1,225.5,141.6,229.3z"/>
<polygon id="XMLID_10_" class="st4" points="166.6,226.2 168.6,232.4 175.1,232.4 169.9,236.2 171.9,242.4 166.6,238.6 161.4,242.4 
	163.4,236.2 158.2,232.4 164.6,232.4 "/>
<polygon id="XMLID_9_" class="st4" points="208.4,191 210.4,197.2 216.9,197.2 211.6,201 213.6,207.2 208.4,203.4 203.2,207.2 
	205.2,201 199.9,197.2 206.4,197.2 "/>
<g id="XMLID_2_">
	<text id="XMLID_52_" transform="matrix(1 0 0 1 314.002 216.6189)" class="st6 st12 st13">PACUEMO</text>
	<text id="XMLID_8_" transform="matrix(1 0 0 1 314.002 216.6189)" class="st14 st12 st13">PACUEMO</text>
</g>
</svg>
