<?xml version="1.0" encoding="utf-8"?>
<!-- Generator: Adobe Illustrator 19.0.0, SVG Export Plug-In . SVG Version: 6.00 Build 0)  -->
<svg version="1.1" id="圖層_1" xmlns="http://www.w3.org/2000/svg" xmlns:xlink="http://www.w3.org/1999/xlink" x="0px" y="0px"
	 viewBox="0 0 1525 317" style="enable-background:new 0 0 1525 317;" xml:space="preserve">
<style type="text/css">
	.st0{fill:#FFFFFF;}
	.st1{fill:#231815;}
	.st2{fill:#040000;}
	.st3{opacity:0.4;fill:#F5E3C4;enable-background:new    ;}
	.st4{font-family:'Garamond-Bold';}
	.st5{font-size:240px;}
	.st6{fill:none;stroke:#1D1D1B;stroke-miterlimit:10;}
</style>
<path id="XMLID_46_" class="st0" d="M122,2.6C75.7,2.6,1.4,25.8,1.4,25.8v198.5L122,318.6l120.6-94.3V25.8
	C242.6,25.8,168.4,2.6,122,2.6z"/>
<path id="XMLID_45_" class="st1" d="M121.4,12.5c-41.7,0-108.5,20.9-108.5,20.9v179.1l108.5,85l108.5-85V33.4
	C229.9,33.4,163.1,12.5,121.4,12.5z"/>
<path id="XMLID_44_" class="st0" d="M121.4,20.2c-40.6,0-102.7,18.4-102.7,18.4v170.5l102.7,81.1l102.7-81.1V38.6
	C224.1,38.6,162,20.2,121.4,20.2z"/>
<polygon id="XMLID_43_" class="st1" points="121.4,248.6 123.4,254.8 129.8,254.8 124.6,258.6 126.6,264.8 121.4,261 116.1,264.8 
	118.1,258.6 112.9,254.8 119.4,254.8 "/>
<polygon id="XMLID_42_" class="st1" points="78.7,227.2 80.7,233.4 87.1,233.4 81.9,237.2 83.9,243.4 78.7,239.6 73.5,243.4 
	75.5,237.2 70.2,233.4 76.7,233.4 "/>
<path id="XMLID_41_" class="st1" d="M180.6,131.4c3.5,9.2-1.8,21.1-1.8,21.1c0.9-20.7-17.6-31.2-8.6-63.8
	c3.7-13.3-4.1-20.7-4.1-20.7c2.2,8.8-3.1,11.4-10.2,23.3c-7.2,11.9-3.5,24.2-3.5,24.2c-12.4-13.2-7-32.1-3.4-43.1s-1.4-18-1.4-18
	c2.2,12.8-16.7,31.2-29.7,9.7c-13-21.6,3.4-35.6,3.4-35.6C100.6,28.9,95.7,55.3,97,70.7c2.2,25.5-10.9,29.5-10.9,29.5
	c2.1-8.9-0.4-17.4-4.5-22.4s-9.7-6.6-9.7-6.6s12.4,15.4-6.1,48.8c-9.8,17.7,1.3,35.6,1.3,35.6c-8.8-6.6-15.8,0-15.8,0
	c11.9,8.4,3.5,29.9,17.6,49.3c8.2,11.3,17.3,17.6,26.6,21.3c-14.7-9.3-24.4-25.7-24.4-44.4c0-29,23.5-52.5,52.5-52.5
	s52.5,23.5,52.5,52.5c0,19.4-10.5,36.3-26.1,45.4c21-7.6,30.9-23.5,34.6-33.8C200,150.4,180.6,131.4,180.6,131.4z"/>
<ellipse id="XMLID_32_" class="st2" cx="120.9" cy="184.2" rx="51.5" ry="51.7"/>
<path id="XMLID_22_" class="st3" d="M167.9,214.4c0.2-0.2,0.3-0.4,0.4-0.6c5.5-8.5,8.6-18.7,8.6-29.6c0-15.6-6.5-29.6-16.9-39.6
	c-0.2-0.2-0.4-0.4-0.6-0.6c-9.7-9-22.7-14.6-37-14.6c-17.4,0-32.9,8.2-42.9,21c-0.2,0.2-0.4,0.4-0.5,0.6c-7,9.2-11.1,20.7-11.1,33.1
	c0,30.2,24.4,54.8,54.5,54.8c1.8,0,3.6-0.1,5.4-0.3c0.1,0,0.2,0,0.3,0c0.1,0,0.3,0,0.4,0c0.3-0.1,0.7-0.1,1-0.2
	C145.6,236.4,159.4,227.3,167.9,214.4z M169.5,199.2c-0.1-1-0.3-2-0.4-3c-0.9-5.4-3.2-13.2-8.7-21c2.2-2,4.2-3.1,6-3.1
	c1.5,0,3,0.7,4.4,2.1c0.7,3.2,1,6.6,1,10C171.8,189.4,171,194.5,169.5,199.2z M168.9,167.2c-0.8-0.2-1.6-0.3-2.4-0.3h-0.1
	c-3,0-6.1,1.4-9.1,4.2c-1.7-2-3.8-4.1-6.1-6.1c3.4-5.6,5.9-10.4,7.7-14.2C163.2,155.5,166.6,161,168.9,167.2z M139.9,145.7
	c-1.1-3-3.2-6.6-6.9-9.9c8.3,1.8,15.8,5.7,22,11.1c-1.8,4.3-4.5,9.3-7.8,14.9c-1.9-1.4-4-2.7-6.3-3.9
	C141.6,154.8,141.6,150.3,139.9,145.7z M121,134.6c0,0,0.1,0,0.1,0.1c8.7,3.2,12.4,8.7,13.9,12.8c1.2,3.2,1.3,6.1,1,8.1
	c-11.5-5-27.2-8-48.4-6.4C96.2,140.5,108,135,121,134.6z M82.8,154.8c22.9-2.5,39.3,0.4,51.1,5.5c-4,5.5-11.5,9.9-31.6,14.5
	c-14.4,3.4-24,7.3-29.1,11.9c0-0.8-0.1-1.7-0.1-2.6C73.2,173.2,76.8,163,82.8,154.8z M74.2,194.4c0.4-2.5,4.2-8.7,29.2-14.6
	c17.4-4,28.9-8.3,35.1-17.3c2.1,1.1,4,2.4,5.8,3.6c-11.8,18.3-30.8,40.5-54.5,55.2C82.1,214.4,76.5,205.1,74.2,194.4z M94.2,224.8
	c24.9-15.9,43.1-38.1,54.2-55.4c2.1,1.8,3.8,3.7,5.4,5.5c-4,5.8-6.1,15.1-8.2,25c-0.7,3.3-1.5,6.7-2.3,9.8
	c-3.8,14.9-8.2,22.1-14.6,23.7c-2,0.3-4.1,0.4-6.1,0.4C112,233.8,102.2,230.4,94.2,224.8z M140.6,230.3c3.6-5.3,5.9-12.4,7.7-19.3
	c0.8-3.2,1.6-6.7,2.3-10c1.8-8.1,3.6-16.4,6.5-21.6c8.2,12.8,8.5,26.6,6.7,32C158.2,219.9,150.1,226.5,140.6,230.3z"/>
<path id="XMLID_12_" class="st0" d="M167.9,214.4c0.2-0.2,0.3-0.4,0.4-0.6c5.5-8.5,8.6-18.7,8.6-29.6c0-15.6-6.5-29.6-16.9-39.6
	c-0.2-0.2-0.4-0.4-0.6-0.6c-9.7-9-22.7-14.6-37-14.6c-17.4,0-32.9,8.2-42.9,21c-0.2,0.2-0.4,0.4-0.5,0.6c-7,9.2-11.1,20.7-11.1,33.1
	c0,30.2,24.4,54.8,54.5,54.8c1.8,0,3.6-0.1,5.4-0.3c0.1,0,1.4-0.1,1.8-0.2C145.6,236.4,159.4,227.3,167.9,214.4z M169.5,199.2
	c-0.1-1-0.3-2-0.4-3c-0.9-5.4-3.2-13.2-8.7-21c2.2-2,4.2-3.1,6-3.1c1.5,0,3,0.7,4.4,2.1c0.7,3.2,1,6.6,1,10
	C171.8,189.4,171,194.5,169.5,199.2z M168.9,167.2c-0.8-0.2-1.6-0.3-2.4-0.3h-0.1c-3,0-6.1,1.4-9.1,4.2c-1.7-2-3.8-4.1-6.1-6.1
	c3.4-5.6,5.9-10.4,7.7-14.2C163.2,155.5,166.6,161,168.9,167.2z M139.9,145.7c-1.1-3-3.2-6.6-6.9-9.9c8.3,1.8,15.8,5.7,22,11.1
	c-1.8,4.3-4.5,9.3-7.8,14.9c-1.9-1.4-4-2.7-6.3-3.9C141.6,154.8,141.6,150.3,139.9,145.7z M121,134.6c0,0,0.1,0,0.1,0.1
	c8.7,3.2,12.4,8.7,13.9,12.8c1.2,3.2,1.3,6.1,1,8.1c-11.5-5-27.2-8-48.4-6.4C96.2,140.5,108,135,121,134.6z M82.8,154.8
	c22.9-2.5,39.3,0.4,51.1,5.5c-4,5.5-11.5,9.9-31.6,14.5c-14.4,3.4-24,7.3-29.1,11.9c0-0.8-0.1-1.7-0.1-2.6
	C73.2,173.2,76.8,163,82.8,154.8z M74.2,194.4c0.4-2.5,4.2-8.7,29.2-14.6c17.4-4,28.9-8.3,35.1-17.3c2.1,1.1,4,2.4,5.8,3.6
	c-11.8,18.3-30.8,40.5-54.5,55.2C82.1,214.4,76.5,205.1,74.2,194.4z M94.2,224.8c24.9-15.9,43.1-38.1,54.2-55.4
	c2.1,1.8,3.8,3.7,5.4,5.5c-4,5.8-6.1,15.1-8.2,25c-0.7,3.3-1.5,6.7-2.3,9.8c-3.8,14.9-8.2,22.1-14.6,23.7c-2,0.3-4.1,0.4-6.1,0.4
	C112,233.8,102.2,230.4,94.2,224.8z M140.6,230.3c3.6-5.3,5.9-12.4,7.7-19.3c0.8-3.2,1.6-6.7,2.3-10c1.8-8.1,3.6-16.4,6.5-21.6
	c8.2,12.8,8.5,26.6,6.7,32C158.2,219.9,150.1,226.5,140.6,230.3z"/>
<polygon id="XMLID_11_" class="st1" points="40.5,192 42.5,198.2 48.9,198.2 43.7,202 45.7,208.2 40.5,204.4 35.2,208.2 37.2,202 
	32,198.2 38.5,198.2 "/>
<polygon id="XMLID_10_" class="st1" points="165.6,227.2 167.6,233.4 174.1,233.4 168.9,237.2 170.9,243.4 165.6,239.6 160.4,243.4 
	162.4,237.2 157.2,233.4 163.6,233.4 "/>
<polygon id="XMLID_9_" class="st1" points="207.4,192 209.4,198.2 215.9,198.2 210.6,202 212.6,208.2 207.4,204.4 202.2,208.2 
	204.2,202 198.9,198.2 205.4,198.2 "/>
<g id="XMLID_2_">
	<text id="XMLID_48_" transform="matrix(1 0 0 1 313.002 217.6189)" class="st0 st4 st5">PACUEMO</text>
	<text id="XMLID_8_" transform="matrix(1 0 0 1 313.002 217.6189)" class="st6 st4 st5">PACUEMO</text>
</g>
</svg>
